<svg width="80" height="78" viewBox="0 0 80 78" fill="none" xmlns="http://www.w3.org/2000/svg">
<path d="M69.4567 56.2828C73.2318 54.009 75.7497 49.9204 75.7497 45.2546C75.7497 38.1136 69.8516 32.3247 62.5759 32.3247C55.3001 32.3247 49.402 38.1136 49.402 45.2546C49.402 49.9204 51.92 54.009 55.695 56.2828C53.9399 56.9958 52.324 57.9827 50.9317 59.2125C47.8435 61.9405 46.1085 65.6403 46.1085 69.4982V77.5794H79.0432V69.4982C79.0432 65.6403 77.3083 61.9405 74.22 59.2125C72.8278 57.9827 71.2119 56.9958 69.4567 56.2828Z" fill="white"/>
<path d="M29.6412 33.0889H32.9347V42.8216H29.6412V33.0889Z" fill="#4200FF"/>
<path d="M29.6412 46.0658H32.9347V49.31H29.6412V46.0658Z" fill="#4200FF"/>
<path d="M32.9347 20.1119V16.8677C39.5217 16.8677 42.8151 20.1119 42.8151 26.6004L39.5217 26.6004C39.5217 23.3561 36.2282 20.1119 32.9347 20.1119Z" fill="#4200FF"/>
<path d="M32.9347 33.0889L32.9347 36.3331C39.5217 36.3331 42.8151 33.0888 42.8151 26.6004L39.5217 26.6004C39.5217 29.8446 36.2282 33.0889 32.9347 33.0889Z" fill="#4200FF"/>
<path d="M32.9347 20.1119V16.8677C26.3478 16.8677 23.0543 20.1119 23.0543 26.6004L26.3478 26.6004C26.3478 23.3561 29.6413 20.1119 32.9347 20.1119Z" fill="#4200FF"/>
<path d="M56.0327 6.46509L16.6859 6.46509V9.64979L56.0327 9.6498C59.3116 9.6498 62.5905 12.8345 62.5905 16.0192V35.1275H65.8694V16.0192C65.8694 9.6498 62.5905 6.46509 56.0327 6.46509Z" fill="#4200FF"/>
<path d="M16.4673 54.9523C13.3196 54.9523 9.88038 52.0701 9.88038 49.0128V15.3823H6.58691V49.0128C6.58691 55.1274 9.73466 58.1847 16.0301 58.1847L34.9166 58.1848V54.9523H16.4673Z" fill="#4200FF"/>
<path d="M37.2774 58.1848V54.9523L43.5729 54.8411V58.1848H37.2774Z" fill="#4200FF"/>
<path d="M49.402 42.0221C49.402 35.5572 52.6955 32.3247 59.2824 32.3247H65.8693C72.4563 32.3247 75.7497 35.5572 75.7497 42.0221H79.0432V48.4871H75.7497C75.7497 54.9521 72.4563 58.1845 65.8693 58.1845V54.9521C69.1628 54.9521 72.4563 51.7196 72.4563 48.4871V42.0221C72.4563 38.7897 69.1628 35.5572 65.8693 35.5572H59.2824C55.9889 35.5572 52.6955 38.7897 52.6955 42.0221V48.4871H46.1085V42.0221H49.402Z" fill="#4200FF"/>
<rect y="3.23242" width="16.4673" height="9.69744" fill="white"/>
<path fill-rule="evenodd" clip-rule="evenodd" d="M3.29348 3.2438V4.45692e-07L13.174 0V3.23221H16.4673L16.4674 12.9772H13.174V16.221H3.29348V12.9772H0V3.24437L3.29348 3.2438ZM6.58699 12.9767V9.73245H3.29351V6.48808H6.58699V3.24427H9.88034V6.48808H13.1739V6.46469L13.1739 9.73292L9.88034 9.73245V12.9767H6.58699Z" fill="#4200FF"/>
</svg>
