<svg width="73" height="68" viewBox="0 0 73 68" fill="none" xmlns="http://www.w3.org/2000/svg">
<path d="M51.682 2.83057C46.645 2.83057 42.5616 6.63229 42.5616 11.322V16.9829C42.5616 21.6725 46.645 25.4743 51.682 25.4743H63.8425C68.8795 25.4743 72.9628 21.6725 72.9628 16.9829V11.322C72.9628 6.63229 68.8795 2.83057 63.8425 2.83057H51.682Z" fill="white"/>
<path d="M9.12035 19.8133C4.08332 19.8133 0 23.6151 0 28.3047V39.6266C0 44.3162 4.08332 48.118 9.12035 48.118H24.3209C29.358 48.118 33.4413 44.3162 33.4413 39.6266V28.3047C33.4413 23.6151 29.358 19.8133 24.3209 19.8133H9.12035Z" fill="white"/>
<rect x="57.7622" y="2.83057" width="15.2006" height="8.49139" fill="white"/>
<path d="M42.5616 14.1523C42.5616 8.49135 45.6017 5.66089 51.6819 5.66089H57.7621V8.49135L51.6819 8.49135C48.6418 8.49135 45.6017 11.3218 45.6017 14.1523V22.6437H42.5616V14.1523Z" fill="#4200FF"/>
<path d="M45.6017 25.4741H42.5616V22.6437H39.5214V28.3046H36.4813V31.135H39.5214V28.3046H45.6017V25.4741Z" fill="#4200FF"/>
<path d="M72.9627 16.9827C72.9627 22.6437 69.9226 25.4741 63.8424 25.4741H45.6017V22.6437H63.8424C66.8825 22.6437 69.9226 19.8132 69.9226 16.9827V14.1523H72.9627V16.9827Z" fill="#4200FF"/>
<path d="M54.722 16.9827H51.6819V19.8132H54.722V16.9827Z" fill="#4200FF"/>
<path d="M60.8023 16.9827H57.7621V19.8132H60.8023V16.9827Z" fill="#4200FF"/>
<path d="M13.4669 28.8193H16.8337V31.9071H13.4669V28.8193Z" fill="#4200FF"/>
<path d="M13.4669 38.0827H23.5672V41.1704H13.4669V38.0827Z" fill="#4200FF"/>
<path d="M10.1001 34.9949H13.4668L13.4669 38.0827L10.1001 38.0827V34.9949Z" fill="#4200FF"/>
<path d="M23.5671 34.9949H26.9338V38.0827L23.5672 38.0827L23.5671 34.9949Z" fill="#4200FF"/>
<path d="M20.2004 28.8193H23.5672V31.9071H20.2004V28.8193Z" fill="#4200FF"/>
<path d="M3.04012 32.0784V38.3683H0V32.0784C0 25.7885 3.31655 22.6436 9.94948 22.6436H23.2154L23.2154 25.474H9.94948C6.63302 25.474 3.04012 28.9335 3.04012 32.0784Z" fill="#4200FF"/>
<path d="M9.94962 48.1177C3.31666 48.1177 0 44.6583 0 38.3683H3.04012C3.04012 42.4568 6.08024 45.2872 10.5023 45.2873L30.4012 45.2872V48.1177L9.94962 48.1177Z" fill="#4200FF"/>
<path d="M36.4814 48.1177H33.4413V32.0784C33.4413 25.474 30.4012 22.6436 23.2154 22.6436L23.2154 25.474C27.3611 25.474 30.4012 28.3045 30.4012 32.0784V48.1177H33.4413V50.9482L36.4814 50.9482V48.1177Z" fill="#4200FF"/>
<path d="M30.4012 11.3219C27.3611 11.3219 24.321 14.1524 24.321 16.9828V22.6438H21.2809V16.9828C21.2809 11.3219 24.321 8.49146 30.4012 8.49146H45.6018V11.3219L30.4012 11.3219Z" fill="#4200FF"/>
<path d="M21.2809 59.4398C21.2809 65.1007 24.321 67.9311 30.4012 67.9311H36.4815V65.1007H30.4012C27.3611 65.1007 24.321 62.2702 24.321 59.4398V45.2875H21.2809V59.4398Z" fill="#4200FF"/>
<path d="M48.6419 59.4398C48.6419 62.2702 45.6018 65.1007 42.5617 65.1007V67.9311C48.6419 67.9311 51.6821 65.1007 51.6821 59.4398V25.4742H48.6419V59.4398Z" fill="#4200FF"/>
<path d="M39.5216 59.4398H33.4414V62.2702H39.5216V59.4398Z" fill="#4200FF"/>
<path d="M60.8025 2.83046V0H69.9229V2.83046L72.963 2.83046V11.3218H69.9229V14.1523H60.8025V11.3218L60.8025 8.49139H63.8426V11.3218H66.8827V8.49139H69.9229V5.66092H66.8827V2.83046H63.8426V5.66092H60.8025V11.3218L57.7622 11.3213V2.8299L60.8025 2.83046Z" fill="#4200FF"/>
</svg>
