<svg width="112" height="74" viewBox="0 0 112 74" fill="none" xmlns="http://www.w3.org/2000/svg">
<path d="M30.3939 12.6534C30.3939 7.26792 34.7597 2.9021 40.1453 2.9021H49.1368C54.5223 2.9021 58.8881 7.26793 58.8881 12.6534V20.3152H30.3939V12.6534Z" fill="#4200FF"/>
<path d="M30.7031 20.3152C24.0618 20.3152 20.8958 23.2174 20.8958 26.9902V53.9925C20.8958 59.2819 24.5407 60.9457 29.037 60.9457H53.2652C53.2738 60.9458 53.2824 60.9458 53.2909 60.9458H65.6723C67.1711 60.9458 68.3861 59.5165 68.3861 57.7534V46.7251C68.3861 44.962 67.1711 43.5327 65.6723 43.5327H62.054V26.9902C62.054 21.7008 60.471 20.3152 55.9748 20.3152H30.7031Z" fill="#4200FF"/>
<path fill-rule="evenodd" clip-rule="evenodd" d="M30.3938 20.3153L55.722 20.3153C58.888 20.3153 62.054 23.2175 62.054 26.1196V37.7284L46.2239 37.7284V40.6306L62.054 40.6306V43.5328L46.2239 43.5328V46.4349H62.054V50.7882C62.054 51.5896 62.7628 52.2393 63.637 52.2393C64.5113 52.2393 65.2201 51.5896 65.2201 50.7882V46.4349H68.3863V58.0437H55.7218V60.9459L93.714 60.9459V58.0437H90.5482V43.5328C90.5482 37.7284 87.3822 34.8262 81.0502 34.8262H71.5519C69.8035 34.8264 68.3863 36.1257 68.3863 37.7284V43.5328H65.2201V26.1196C65.2201 20.3153 62.054 17.4131 55.722 17.4131H30.3938C24.0618 17.4131 20.8958 20.3153 20.8958 26.1196L20.8958 58.0437C19.1472 58.0437 17.7297 59.3431 17.7297 60.9459H46.2239V58.0437H24.0618V46.4349H43.0579V43.5328L24.0618 43.5328V40.6306L43.0579 40.6306V37.7284L24.0618 37.7284L24.0618 26.1196C24.0618 23.2175 27.2278 20.3153 30.3938 20.3153ZM87.3822 49.3371V43.5328C87.3822 40.6306 84.2162 37.7284 81.0502 37.7284H71.5523V58.0437H87.3822V52.2393H77.8841C77.8841 50.6365 79.3016 49.3371 81.0502 49.3371H87.3822Z" fill="white"/>
<path d="M52.556 58.0437H49.39V60.9459H52.556V58.0437Z" fill="white"/>
<path d="M43.058 0H46.224V5.80437H43.058V0Z" fill="white"/>
<path d="M39.892 8.70656C38.1434 8.70656 36.726 10.0059 36.726 11.6087V20.3153H39.892V11.6087H49.3901V20.3153H52.5561V11.6087C52.5561 10.0059 51.1386 8.70656 49.3901 8.70656H39.892Z" fill="white"/>
<path d="M30.3939 2.90219H27.2279V5.80437H30.3939V8.70656H33.5599V5.80437H30.3939V2.90219Z" fill="white"/>
<path d="M58.8881 5.80437H55.7221V8.70656H58.8881V5.80437Z" fill="white"/>
<path d="M58.8881 5.80437H62.0541V2.90219H58.8881V5.80437Z" fill="white"/>
<path d="M33.5599 14.5109V11.6087H27.2279V14.5109H33.5599Z" fill="white"/>
<path d="M62.0541 11.6087V14.5109H55.7221V11.6087H62.0541Z" fill="white"/>
<path d="M31.9767 69.6523C36.3481 69.6523 39.8918 66.4039 39.8918 62.3968C39.8918 58.3897 36.3481 55.1414 31.9767 55.1414C27.6053 55.1414 24.0616 58.3897 24.0616 62.3968C24.0616 66.4039 27.6053 69.6523 31.9767 69.6523Z" fill="white"/>
<path d="M73.135 69.6523C77.5063 69.6523 81.05 66.4039 81.05 62.3968C81.05 58.3897 77.5063 55.1414 73.135 55.1414C68.7636 55.1414 65.2199 58.3897 65.2199 62.3968C65.2199 66.4039 68.7636 69.6523 73.135 69.6523Z" fill="white"/>
<path d="M31.9768 66.7503C34.5996 66.7503 36.7258 64.8012 36.7258 62.397C36.7258 59.9927 34.5996 58.0437 31.9768 58.0437C29.354 58.0437 27.2278 59.9927 27.2278 62.397C27.2278 64.8012 29.354 66.7503 31.9768 66.7503Z" fill="#4200FF"/>
<path d="M73.1351 66.7503C75.7579 66.7503 77.8841 64.8012 77.8841 62.397C77.8841 59.9927 75.7579 58.0437 73.1351 58.0437C70.5123 58.0437 68.3861 59.9927 68.3861 62.397C68.3861 64.8012 70.5123 66.7503 73.1351 66.7503Z" fill="#4200FF"/>
<path d="M39.892 37.7284V34.8262H49.3901V37.7284L52.5561 37.7284V46.4349H49.3901V49.3371H39.892V46.4349L39.892 43.5327H43.0581V46.4349H46.2241V43.5327H49.3901V40.6305H46.2241V37.7284H43.0581V40.6305H39.892V46.4349L36.7258 46.4343V37.7278L39.892 37.7284Z" fill="white"/>
</svg>
