<svg width="72" height="73" viewBox="0 0 72 73" fill="none" xmlns="http://www.w3.org/2000/svg">
<rect x="2.96777" y="12.0044" width="9.00326" height="8.90322" transform="rotate(-90 2.96777 12.0044)" fill="white"/>
<path d="M67.5607 24.1611C68.1643 23.5751 68.1643 22.625 67.5607 22.039L61.4089 16.0669C60.8053 15.4809 59.8266 15.4809 59.223 16.0669L25.9474 48.3704C25.3438 48.9564 25.3438 49.9065 25.9474 50.4925L32.0992 56.4645C32.7028 57.0505 33.6815 57.0505 34.2851 56.4645L67.5607 24.1611Z" fill="white"/>
<path d="M32.6451 60.0216H14.8386V63.0227H32.6451V60.0216Z" fill="white"/>
<path d="M59.3295 15.4175C59.9207 14.8436 60.8792 14.8436 61.4704 15.4175L68.0294 21.7849C68.6206 22.3588 68.6206 23.2893 68.0294 23.8632L66.9139 24.9461L58.214 16.5004L59.3295 15.4175Z" fill="#4200FF"/>
<path fill-rule="evenodd" clip-rule="evenodd" d="M65.7751 25.5988L57.9544 18.0066L57.423 17.4931L32.6931 41.5006L29.9765 38.8633L27.7905 40.9854L40.4453 53.2704L42.6312 51.1484L41.2224 49.7806L47.4839 43.702V63.0229H35.3131C34.4238 59.0215 31.556 57.0207 26.7097 57.0207H20.7742C15.9279 57.0207 13.0601 59.0215 12.1708 63.0229H8.90323V63.0266C2.96774 63.1454 0 66.1453 0 72.0262H8.90323V69.0251H4.08051C5.23866 67.3025 7.25643 66.024 9.27419 66.024H62.3226C64.2596 66.024 66.1967 67.3025 67.3085 69.0251H20.7742V72.0262H71.2258C71.2258 66.024 68.2581 63.0229 62.3226 63.0229H56.3871V35.0589L65.9386 25.7864L65.7602 25.6133L65.7751 25.5988ZM53.4194 37.94L50.4516 40.821V63.0229H53.4194V37.94ZM34.8791 43.6227L57.4243 21.7361L61.421 25.6161L38.8758 47.5027L34.8791 43.6227ZM26.7097 60.0218C28.6467 60.0218 30.5838 61.3003 31.6956 63.0229H15.7883C16.9001 61.3003 18.8371 60.0218 20.7742 60.0218H26.7097Z" fill="#4200FF"/>
<path d="M33.8803 48.6552L27.0406 42.0153L24.8547 44.1374L31.6944 50.7773L33.8803 48.6552Z" fill="#4200FF"/>
<path d="M36.1018 50.8123L39.6949 54.3005L37.509 56.4226L33.9158 52.9344L36.1018 50.8123Z" fill="#4200FF"/>
<path d="M11.871 69.0251H14.8387V72.0262H11.871V69.0251Z" fill="#4200FF"/>
<path d="M21.7634 24.3729L23.9493 22.2508L21.7634 20.1288L23.9493 18.0067L26.1352 20.1287L28.3212 18.0066L30.5072 20.1287L28.3212 22.2508L30.5072 24.3729L28.3212 26.495L26.1352 24.3729L23.9493 26.4949L21.7634 24.3729Z" fill="#4200FF"/>
<path d="M7.58634 35.1342L5.40039 37.2563L7.58634 39.3783L5.40039 41.5004L7.58634 43.6225L9.77229 41.5004L11.9582 43.6225L14.1442 41.5004L11.9582 39.3783L14.1442 37.2563L11.9582 35.1342L9.77229 37.2563L7.58634 35.1342Z" fill="#4200FF"/>
<path d="M2.96792 3.00109V0H11.8711V3.00109L14.8389 3.00109V12.0043H11.8711V15.0054H2.96792V12.0043L2.96792 9.00326H5.93566V12.0043H8.90341V9.00326H11.8711V6.00217H8.90341V3.00109H5.93566V6.00217H2.96792V12.0043L0 12.0038V3.00049L2.96792 3.00109Z" fill="#4200FF"/>
</svg>
